<svg xmlns="http://www.w3.org/2000/svg" viewBox="0 0 900 280" font-family="-apple-system,BlinkMacSystemFont,Helvetica,Arial,sans-serif">
  <rect width="900" height="280" rx="16" fill="#f6f7f9"/>
  <text x="450" y="38" text-anchor="middle" font-size="16" font-weight="700" fill="#222">Version 2 of 3 · before after</text>
  <text x="300" y="40" text-anchor="middle" font-size="26" fill="#555">‹</text><text x="600" y="40" text-anchor="middle" font-size="26" fill="#555">›</text>
  <g>
    <rect x="50" y="70" width="230" height="130" rx="10" fill="#fff" stroke="#d5d9df" stroke-width="2"/>
    <rect x="66" y="88" width="120" height="12" rx="3" fill="#cfd5dd"/><rect x="66" y="112" width="190" height="8" rx="3" fill="#e3e7ec"/><rect x="66" y="130" width="160" height="8" rx="3" fill="#e3e7ec"/>
    <text x="165" y="225" text-anchor="middle" font-size="14" fill="#555">current</text>
  </g>
  <g>
    <rect x="335" y="64" width="230" height="130" rx="10" fill="#fff" stroke="#e5484d" stroke-width="4"/>
    <rect x="351" y="82" width="90" height="12" rx="3" fill="#f2b8ba"/><rect x="351" y="108" width="85" height="60" rx="6" fill="#fde8e9"/><rect x="450" y="108" width="85" height="60" rx="6" fill="#e1f3ea"/>
    <text x="450" y="225" text-anchor="middle" font-size="14" font-weight="700" fill="#e5484d">before after</text>
  </g>
  <g>
    <rect x="620" y="70" width="230" height="130" rx="10" fill="#fff" stroke="#d5d9df" stroke-width="2"/>
    <circle cx="660" cy="125" r="22" fill="#dde6fb"/><rect x="696" y="105" width="130" height="10" rx="3" fill="#cfd5dd"/><rect x="696" y="127" width="110" height="8" rx="3" fill="#e3e7ec"/><rect x="696" y="145" width="120" height="8" rx="3" fill="#e3e7ec"/>
    <text x="735" y="225" text-anchor="middle" font-size="14" fill="#555">as a story</text>
  </g>
  <rect x="368" y="236" width="164" height="30" rx="8" fill="#e1f3ea" stroke="#2f9e6e"/><text x="450" y="256" text-anchor="middle" font-size="14" font-weight="700" fill="#1f6b4a">Use this version</text>
</svg>
